HIERARCHY
ROOT SpineBase
{
  OFFSET 0.000000 0.000000 0.000000
  CHANNELS 6 Xposition Yposition Zposition Zrotation Xrotation Yrotation
  JOINT SpineMid
  {
    OFFSET -0.000000 22.535553 0.000000
    CHANNELS 3 Zrotation Xrotation Yrotation
    JOINT SpineShoulder
    {
      OFFSET 0.046011 16.953567 -0.549364
      CHANNELS 3 Zrotation Xrotation Yrotation
      JOINT Neck
      {
        OFFSET -0.001763 5.700352 -0.439817
        CHANNELS 3 Zrotation Xrotation Yrotation
        JOINT Head
        {
          OFFSET -0.962530 11.888475 2.088897
          CHANNELS 3 Zrotation Xrotation Yrotation
          End Site
          {
            OFFSET 0 0 0
          }
        }
      }
      JOINT ShoulderLeft
      {
        OFFSET -13.124179 -3.236407 4.521541
        CHANNELS 3 Zrotation Xrotation Yrotation
        JOINT ElbowLeft
        {
          OFFSET -3.651221 -21.127410 0.071699
          CHANNELS 3 Zrotation Xrotation Yrotation
          JOINT WristLeft
          {
            OFFSET -1.781560 -10.517353 -20.260813
            CHANNELS 3 Zrotation Xrotation Yrotation
            JOINT HandLeft
            {
              OFFSET -0.246387 -3.385273 -6.647242
              CHANNELS 3 Zrotation Xrotation Yrotation
              JOINT HandTipLeft
              {
                OFFSET -1.108163 -3.039884 -6.807062
                CHANNELS 3 Zrotation Xrotation Yrotation
                End Site
                {
                  OFFSET 0 0 0
                }
              }
              JOINT ThumbLeft
              {
                OFFSET -2.894465 2.837206 -2.774306
                CHANNELS 3 Zrotation Xrotation Yrotation
                End Site
                {
                  OFFSET 0 0 0
                }
              }
            }
          }
        }
      }
      JOINT ShoulderRight
      {
        OFFSET 10.408382 -3.374898 -7.564694
        CHANNELS 3 Zrotation Xrotation Yrotation
        JOINT ElbowRight
        {
          OFFSET 4.875509 -20.058195 -3.288914
          CHANNELS 3 Zrotation Xrotation Yrotation
          JOINT WristRight
          {
            OFFSET -14.424466 -10.486604 -11.492420
            CHANNELS 3 Zrotation Xrotation Yrotation
            JOINT HandRight
            {
              OFFSET -3.535479 -2.391406 -2.656469
              CHANNELS 3 Zrotation Xrotation Yrotation
              JOINT HandTipRight
              {
                OFFSET -4.081061 -3.240466 -7.658037
                CHANNELS 3 Zrotation Xrotation Yrotation
                End Site
                {
                  OFFSET 0 0 0
                }
              }
              JOINT ThumbRight
              {
                OFFSET 3.317506 -0.138634 -0.334984
                CHANNELS 3 Zrotation Xrotation Yrotation
                End Site
                {
                  OFFSET 0 0 0
                }
              }
            }
          }
        }
      }
    }
  }
  JOINT HipLeft
  {
    OFFSET -5.359218 1.219837 -0.730948
    CHANNELS 3 Zrotation Xrotation Yrotation
    JOINT KneeLeft
    {
      OFFSET -18.667515 -2.924734 -25.093238
      CHANNELS 3 Zrotation Xrotation Yrotation
      JOINT AnkleLeft
      {
        OFFSET -0.155974 -34.921138 1.610358
        CHANNELS 3 Zrotation Xrotation Yrotation
        JOINT FootLeft
        {
          OFFSET 2.173669 -4.790641 -6.560211
          CHANNELS 3 Zrotation Xrotation Yrotation
          End Site
          {
            OFFSET 0 0 0
          }
        }
      }
    }
  }
  JOINT HipRight
  {
    OFFSET 4.910319 1.389296 -4.802047
    CHANNELS 3 Zrotation Xrotation Yrotation
    JOINT KneeRight
    {
      OFFSET -16.058902 -1.852115 -28.181861
      CHANNELS 3 Zrotation Xrotation Yrotation
      JOINT AnkleRight
      {
        OFFSET -5.317877 -32.382501 1.305531
        CHANNELS 3 Zrotation Xrotation Yrotation
        JOINT FootRight
        {
          OFFSET -5.282587 -7.399336 3.219400
          CHANNELS 3 Zrotation Xrotation Yrotation
          End Site
          {
            OFFSET 0 0 0
          }
        }
      }
    }
  }
}
MOTION
Frames: 13
Frame Time: 0.033333
31.608906 42.548390 373.400797 0.000000 0.000000 21.624601 -0.000000 0.000000 -21.624601 -0.000000 0.000000 0.000000 -0.000000 0.000000 0.000000 0.000000 0.000000 0.000000 -0.000000 0.000000 0.000000 -0.000000 0.000000 0.000000 -0.000000 0.000000 0.000000 -0.000000 0.000000 0.000000 0.000000 0.000000 0.000000 0.000000 0.000000 0.000000 -0.000000 0.000000 0.000000 -0.000000 0.000000 0.000000 -0.000000 0.000000 0.000000 -0.000000 0.000000 0.000000 0.000000 0.000000 0.000000 0.000000 0.000000 0.000000 -0.000000 0.000000 -21.624601 -0.000000 0.000000 0.000000 -0.000000 0.000000 0.000000 0.000000 0.000000 0.000000 -0.000000 0.000000 -21.624601 -0.000000 0.000000 0.000000 -0.000000 0.000000 0.000000 0.000000 0.000000 0.000000
31.462484 42.639419 373.500587 -0.501583 -0.138430 21.809795 0.517111 -0.057832 -21.810140 -0.000000 0.000000 0.000000 -0.000000 0.000000 0.000000 0.000000 0.000000 0.000000 -0.642304 0.896578 -0.151960 0.272957 -1.725072 1.026135 0.538676 2.046726 -1.222921 -0.030636 -0.403700 -0.172220 0.000000 0.000000 0.000000 0.000000 0.000000 0.000000 -0.000000 0.000000 0.000000 11.549672 -2.506316 -10.721109 -7.613377 1.378746 5.424456 0.419215 -7.562606 5.516518 0.000000 0.000000 0.000000 0.000000 0.000000 0.000000 0.517111 -0.057832 -21.810140 -0.000000 0.000000 0.000000 -0.540401 -4.962874 -1.637180 0.000000 0.000000 0.000000 0.517111 -0.057832 -21.810140 0.037690 0.926483 -0.150993 -0.655165 10.743646 -8.761043 0.000000 0.000000 0.000000
31.350861 42.717956 373.584383 -0.916045 -0.253920 21.965053 0.944524 -0.107167 -21.966199 -1.110006 -0.166665 -0.087303 1.879328 -0.339054 -0.091099 0.000000 0.000000 0.000000 -0.080252 1.792161 -0.180100 0.492111 -3.178182 1.946415 1.077166 3.846036 -2.338993 -0.035210 -0.797322 -0.353268 0.000000 0.000000 0.000000 0.000000 0.000000 0.000000 1.109756 0.168325 0.084058 24.281411 -7.910735 -22.639428 -17.113300 1.328430 12.329681 2.750343 -15.324714 12.620291 0.000000 0.000000 0.000000 0.000000 0.000000 0.000000 0.944524 -0.107167 -21.966199 0.789779 0.366765 0.032260 -2.225383 -8.303103 -1.992417 0.000000 0.000000 0.000000 0.944524 -0.107167 -21.966199 0.104507 1.793463 -0.292198 0.364400 20.932879 -17.462419 0.000000 0.000000 0.000000
31.274037 42.784001 373.652183 -1.242540 -0.346238 22.090740 0.353199 0.032562 -22.123335 -0.566711 -0.070373 -0.085810 2.405148 -0.405326 -0.100507 0.000000 0.000000 0.000000 -0.147865 2.439827 -0.232037 0.657741 -4.338695 2.745454 1.583358 5.338748 -3.313344 -0.011151 -1.155327 -0.546396 0.000000 0.000000 0.000000 0.000000 0.000000 0.000000 1.493755 0.256297 0.112016 34.309627 -14.340990 -32.230877 -24.966964 -0.141111 17.975877 7.053423 -21.756219 20.551818 0.000000 0.000000 0.000000 0.000000 0.000000 0.000000 1.498409 -0.867347 -22.421801 0.648807 1.085998 0.366674 -3.690246 -9.472272 -0.972964 0.000000 0.000000 0.000000 1.281525 -0.146508 -22.092856 0.200858 2.570014 -0.419026 2.287830 28.250394 -24.582413 0.000000 0.000000 0.000000
31.232011 42.837554 373.703987 -1.480419 -0.415214 22.187158 0.405852 0.021384 -22.227090 -0.653061 -0.100772 -0.101102 2.655208 -0.402340 -0.085619 0.000000 0.000000 0.000000 -0.233515 2.922233 -0.263562 0.770144 -5.188199 3.409135 2.023080 6.470489 -4.110619 0.043292 -1.450602 -0.755316 0.000000 0.000000 0.000000 0.000000 0.000000 0.000000 1.765009 0.346669 0.130989 40.000230 -18.880884 -38.146887 -29.339904 -1.822360 21.348012 11.829713 -25.801001 27.299820 0.000000 0.000000 0.000000 0.000000 0.000000 0.000000 1.776743 -1.051111 -22.449788 0.857440 1.309596 0.303753 -5.369547 -8.712515 1.472867 0.000000 0.000000 0.000000 1.527582 -0.174655 -22.190194 0.325489 3.226805 -0.526934 3.732560 31.969871 -28.846770 0.000000 0.000000 0.000000
31.224784 42.878615 373.739797 -1.629217 -0.460726 22.254536 0.424550 -0.000149 -22.299624 -0.688919 -0.134889 -0.109865 2.629580 -0.329978 -0.045588 0.000000 0.000000 0.000000 -0.337068 3.239829 -0.277391 0.829772 -5.711344 3.925256 2.363704 7.195103 -4.698248 0.128905 -1.656879 -0.983760 0.000000 0.000000 0.000000 0.000000 0.000000 0.000000 1.924134 0.439418 0.141271 41.915464 -20.415508 -40.991435 -30.837529 -3.152398 23.387946 14.753224 -27.567849 30.612800 0.000000 0.000000 0.000000 0.000000 0.000000 0.000000 1.945544 -1.180636 -22.360801 1.061996 1.461736 0.151407 -7.409250 -6.040730 5.435487 0.000000 0.000000 0.000000 1.536782 0.692879 -21.791699 0.968482 2.968740 -1.068868 3.720365 32.257335 -29.567301 0.000000 0.000000 0.000000
31.242625 42.898945 373.727930 -1.636609 -0.460935 22.331097 0.353701 -0.052122 -22.378451 -0.653089 -0.191354 -0.110370 1.941403 0.570650 0.140366 0.000000 0.000000 0.000000 -0.445412 3.014904 -0.215249 0.643608 -5.358857 4.458532 3.002724 7.365137 -5.793948 0.150246 -1.870925 -1.053167 0.000000 0.000000 0.000000 0.000000 0.000000 0.000000 1.941403 0.570650 0.140366 40.886509 -18.732831 -42.806800 -30.753404 -5.328270 26.399312 14.708873 -27.505288 27.519925 0.000000 0.000000 0.000000 0.000000 0.000000 0.000000 1.935299 -1.240820 -22.096961 1.243625 1.480074 -0.185177 -9.896164 -0.470271 11.214109 0.000000 0.000000 0.000000 1.501933 0.890150 -21.632452 1.097550 2.814976 -1.304927 2.131965 28.371848 -25.608113 0.000000 0.000000 0.000000
31.338084 42.907625 373.709991 -1.492438 -0.417362 22.319450 0.249837 -0.111556 -22.364086 -0.531361 -0.223526 -0.098308 1.085627 0.099425 0.201772 0.000000 0.000000 0.000000 -0.613637 3.150345 -0.235631 0.411270 -5.499155 4.893738 3.566801 7.698041 -6.768761 -0.490214 -1.529389 0.006326 0.000000 0.000000 0.000000 0.000000 0.000000 0.000000 1.748968 0.652913 0.125244 37.072642 -15.405620 -38.414647 -27.585446 -3.651341 23.512668 8.874575 -23.481897 23.597362 0.000000 0.000000 0.000000 0.000000 0.000000 0.000000 1.755001 -1.257595 -21.637453 1.411709 1.450584 -0.629178 -13.767887 6.007062 18.848440 0.000000 0.000000 0.000000 1.302176 1.210368 -21.500411 1.413507 3.611236 -1.597081 -0.585894 18.752559 -17.775915 0.000000 0.000000 0.000000
31.434520 42.915907 373.697833 -1.393019 -0.370986 22.291863 0.194906 -0.142065 -22.333970 -0.432435 -0.262996 -0.088599 0.315252 0.186716 0.306679 0.000000 0.000000 0.000000 -0.608744 2.769777 -0.186104 0.155686 -4.562363 4.857352 3.233048 6.670893 -6.120709 -0.225347 -0.829644 -0.585460 0.000000 0.000000 0.000000 0.000000 0.000000 0.000000 1.275309 -0.175916 -0.045138 37.849071 -15.696596 -37.545373 -26.993535 -2.350750 21.814330 9.134026 -24.024030 24.663780 0.000000 0.000000 0.000000 0.000000 0.000000 0.000000 1.610928 -1.263956 -21.199042 1.547600 1.371351 -1.035980 -17.705184 12.194775 25.990610 0.000000 0.000000 0.000000 1.130589 1.334521 -20.856647 2.229521 3.965292 -2.282275 -1.871227 6.038609 -7.934535 0.000000 0.000000 0.000000
31.568048 42.925290 373.684667 -1.282860 -0.297838 22.110123 0.121480 -0.165127 -22.149742 -0.334117 -0.285963 -0.079071 -0.253486 0.208471 0.375499 0.000000 0.000000 0.000000 -1.692710 2.924540 -0.194088 2.403410 -2.231362 1.853023 1.542890 3.544028 -3.016306 -0.614433 0.968894 -0.236909 0.000000 0.000000 0.000000 0.000000 0.000000 0.000000 0.934288 -0.571551 -0.121201 26.082770 -5.589390 -28.085606 -18.349412 -1.625817 16.905489 1.864782 -15.624692 16.988972 0.000000 0.000000 0.000000 0.000000 0.000000 0.000000 1.450099 -1.308335 -20.538501 1.890662 1.441685 -1.508709 -22.066461 16.448744 32.564038 0.000000 0.000000 0.000000 0.949455 1.362063 -20.116931 2.842698 3.581810 -2.771060 -0.456075 -6.176952 2.190989 0.000000 0.000000 0.000000
31.661297 42.933329 373.747726 -1.292561 -0.339678 21.992241 0.139302 -0.172955 -22.032037 -0.231439 -0.280170 -0.070780 -0.609798 0.314946 0.420108 0.000000 0.000000 0.000000 -2.038643 2.327251 -0.103168 2.532734 -1.827212 1.971106 1.407889 3.463974 -2.774408 -0.520539 -0.199045 0.142002 0.000000 0.000000 0.000000 0.000000 0.000000 0.000000 0.860654 -1.026285 -0.257640 9.290461 3.715993 -13.558713 -5.185860 -2.891087 9.287946 -6.357315 -0.669666 11.358814 0.000000 0.000000 0.000000 0.000000 0.000000 0.000000 1.474742 -1.291841 -20.321817 2.093299 1.505008 -1.605487 -25.557363 18.994731 37.545831 0.000000 0.000000 0.000000 0.959565 1.341116 -19.710895 3.106226 3.013564 -2.945204 -0.864842 -8.113538 3.802863 0.000000 0.000000 0.000000
31.813755 42.884412 373.860985 -1.211011 -0.461555 21.933920 0.113465 -0.074205 -21.973143 -0.151244 -0.237308 -0.063335 -0.756425 0.442959 0.434190 0.000000 0.000000 0.000000 -1.583439 0.977723 0.075565 1.049847 -2.586073 3.949536 1.081970 4.475068 -2.204073 1.085398 -0.023579 -2.676639 0.000000 0.000000 0.000000 0.000000 0.000000 0.000000 0.251416 -1.232813 -0.234064 3.615863 5.009168 -6.956911 -0.565110 -2.739962 4.553827 -8.155896 4.957999 9.023261 0.000000 0.000000 0.000000 0.000000 0.000000 0.000000 1.411020 -1.055180 -20.160584 2.650647 1.765232 -1.708097 -29.804631 20.462982 42.879607 0.000000 0.000000 0.000000 0.921185 1.444321 -19.466116 3.155700 2.035418 -2.945836 -3.529810 -5.086063 0.882383 0.000000 0.000000 0.000000
31.896002 42.850031 373.975316 -1.267523 -0.541268 21.853647 0.186164 -0.005912 -21.893847 -0.129082 -0.148111 -0.061356 -0.680654 0.309167 0.412518 0.000000 0.000000 0.000000 -0.772456 -0.969051 0.349619 -1.195277 -4.965402 7.659495 2.144349 7.078868 -4.163670 2.807395 -2.688588 -5.385374 0.000000 0.000000 0.000000 0.000000 0.000000 0.000000 -0.220589 -2.061659 -0.349502 1.779526 5.598444 -3.933079 4.536689 -5.545128 4.037457 -12.117834 11.224136 7.133942 0.000000 0.000000 0.000000 0.000000 0.000000 0.000000 1.494966 -0.960458 -20.213281 2.710575 1.831683 -1.577409 -29.487499 21.514494 42.497937 0.000000 0.000000 0.000000 1.026857 1.361835 -19.441567 2.997910 1.252379 -2.732098 -2.712801 -4.558733 1.432725 0.000000 0.000000 0.000000
